<?xml version="1.0" encoding="UTF-8"?><svg id="Layer_2" xmlns="http://www.w3.org/2000/svg" viewBox="0 0 73.63 72.79"><defs><style>.cls-1{fill:#eb008b;}.cls-2{fill:#fff;}</style></defs><g id="info"><g><path class="cls-2" d="M20.94,68.96h1.79v3.83h.72v-3.83h1.78v-.43h-4.29v.43Zm8.33-.43l-2.27,4.26h.73l.62-1.21h2.37l.6,1.21h.8l-2.16-4.26h-.69Zm-.71,2.62l.9-1.78c.04-.07,.06-.11,.1-.22,.06,.14,.06,.16,.1,.22l.86,1.78h-1.95Zm6.5,1.64h.72v-4.26h-.72v4.26Zm6.78-4.13c-.32-.12-.58-.13-.93-.13h-1.6v4.26h.73v-1.81h.29c.46,0,1.12-.01,1.63-.26,.5-.23,.76-.64,.76-1.02,0-.35-.25-.81-.89-1.04Zm-.36,1.71c-.37,.18-.86,.16-1.06,.16h-.37s0-1.57,0-1.57h.76c.56,0,1.14,.18,1.14,.75,0,.28-.19,.53-.47,.66Zm5,.39h2.09v-.43h-2.09v-1.37h2.4v-.43h-3.13v4.26h3.13l.34-.43h-2.74v-1.59Zm5.65-2.23v4.26h.72v-4.26h-.72Z"/><g><path class="cls-1" d="M12.51,7.61V42.2l48.75,6.55V0L12.51,7.61Zm31.03,22.96l-23.4,3.6V10.77l23.4,3.65V30.57Z"/><path class="cls-2" d="M5.74,64c-2,0-3.12-1.16-3.12-2.65,0-1.41,1.05-2.6,2.94-2.61,1.02,0,1.71,.41,2.02,.59l.17,.1v-2.07l-.08-.02c-.6-.16-1.37-.34-2.38-.34-3.46,0-5.27,2.11-5.28,4.44,0,2.4,1.92,4.26,5.12,4.26,.98,0,1.55-.14,1.87-.22h.04s.02-.05,.02-.05l1.25-1.97-.31,.12c-.71,.27-1.48,.42-2.25,.42Zm67.76,1.31l-2.98-4.15,2.95-3.96h-2.82l-1.49,2.1-1.46-2.1h-2.83l2.92,4-3.16,4.29h2.77l1.72-2.41,1.66,2.41h2.84l-.13-.18Zm-24.45-6.29h2.51v6.47h2.51v-6.47h2.49s0-1.82,0-1.82h-7.52v1.83Zm11.23,4.64v-1.54h2.93v-1.8h-2.93v-1.32h3.41v-1.81h-5.93v8.29h5.53l.03-.05,1.33-1.78h-4.39Zm-24.15-6.47h-3.97v8.29h2.52v-3.2h1.02c.68-.01,2.21-.03,3.09-1.17,.29-.39,.46-.89,.46-1.39,0-1.69-1.51-2.52-3.11-2.52Zm.27,3.24c-.27,.22-.63,.24-.86,.24h-.86v-1.76h.87c.66,0,1.17,.26,1.17,.88,0,.25-.11,.48-.32,.64Zm-22.57-3.45c-3.05,0-4.93,1.93-4.93,4.35,0,2.49,1.87,4.35,4.98,4.35,3.12,0,4.85-2.11,4.86-4.4,0-2.32-1.82-4.3-4.91-4.3Zm0,6.88c-1.43,0-2.27-1.09-2.28-2.53,0-1.49,.9-2.56,2.28-2.56,1.4,0,2.25,1.08,2.25,2.6,0,1.18-.7,2.5-2.25,2.5Zm13.52-6.67l-2.23,4.35-2.21-4.35h-2.47l-1.02,8.29h2.43l.47-4.99,2.56,4.99h.46l2.6-4.97,.45,4.97h2.48l-1.06-8.29h-2.44Zm18.29,6.44h0s0,0,0,0c-.6,.38-1.12,.48-1.95,.48-.6,0-1.01-.31-1.13-.76-.06-.23-.06-.48-.06-.97v-5.12h-2.27v6.13c.01,.52,.03,1.21,.68,1.76,.33,.28,.95,.55,1.91,.55,.64,0,1.48-.26,2.42-.98l.39-.29v1.11h2.2v-8.3h-2.2v6.41Z"/></g></g></g></svg>