<?xml version="1.0" encoding="UTF-8"?>
<svg width="144px" height="100px" viewBox="0 0 144 100" version="1.1" xmlns="http://www.w3.org/2000/svg" xmlns:xlink="http://www.w3.org/1999/xlink">
    <title>Artboard Copy 2</title>
    <defs>
        <linearGradient x1="26.5451793%" y1="104.931794%" x2="81.2631093%" y2="2.28226653%" id="linearGradient-1">
            <stop stop-color="#FFFFFF" offset="0%"></stop>
            <stop stop-color="#F4FCFF" offset="2%"></stop>
            <stop stop-color="#C0F2FF" offset="12%"></stop>
            <stop stop-color="#9BEBFF" offset="21%"></stop>
            <stop stop-color="#84E6FF" offset="27%"></stop>
            <stop stop-color="#7CE5FF" offset="32%"></stop>
            <stop stop-color="#7CDBFF" offset="47%"></stop>
            <stop stop-color="#7DC3FF" offset="73%"></stop>
            <stop stop-color="#8CCAFF" offset="75%"></stop>
            <stop stop-color="#B5DCFF" offset="80%"></stop>
            <stop stop-color="#D5EBFF" offset="86%"></stop>
            <stop stop-color="#ECF6FF" offset="91%"></stop>
            <stop stop-color="#FAFCFF" offset="96%"></stop>
            <stop stop-color="#FFFFFF" offset="100%"></stop>
        </linearGradient>
    </defs>
    <g id="Artboard-Copy-2" stroke="none" stroke-width="1" fill="none" fill-rule="evenodd">
        <g id="icon_SD" transform="translate(40.000000, 9.000000)" fill="url(#linearGradient-1)" fill-rule="nonzero">
            <path d="M63,83 L0,83 L0,20.8588667 C0,18.5726653 0.938994801,16.3300105 2.55493934,14.7405561 L17.3168111,0 L62.9781629,0 L62.9781629,83 L63,83 Z M2.20554593,80.8226653 L60.8162912,80.8226653 L60.8162912,2.17733473 L18.2339688,2.17733473 L4.10537262,16.2646905 C2.88249567,17.4622246 2.20554593,19.1387723 2.20554593,20.8588667 L2.20554593,80.8226653 Z M49.2426343,33.7486884 C46.5566724,33.7486884 44.3511265,31.5713536 44.3511265,28.8714586 L44.3511265,18.7686254 C44.3511265,16.0687303 46.5348354,13.8913956 49.2426343,13.8913956 C51.9504333,13.8913956 54.1341421,16.0687303 54.1341421,18.7686254 L54.1341421,28.8714586 C54.1341421,31.5713536 51.9504333,33.7486884 49.2426343,33.7486884 L49.2426343,33.7486884 Z M49.2426343,16.0687303 C47.7577123,16.0687303 46.5348354,17.2880378 46.5348354,18.7686254 L46.5348354,28.8714586 C46.5348354,30.3520462 47.7577123,31.5713536 49.2426343,31.5713536 C50.7275563,31.5713536 51.9504333,30.3520462 51.9504333,28.8714586 L51.9504333,18.7686254 C51.9504333,17.2880378 50.7275563,16.0687303 49.2426343,16.0687303 Z M39.1102253,33.7486884 C36.4242634,33.7486884 34.2187175,31.5713536 34.2187175,28.8714586 L34.2187175,18.7686254 C34.2187175,16.0687303 36.4024263,13.8913956 39.1102253,13.8913956 C41.8180243,13.8913956 44.0017331,16.0687303 44.0017331,18.7686254 L44.0017331,28.8714586 C44.0017331,31.5713536 41.8180243,33.7486884 39.1102253,33.7486884 Z M39.1102253,16.0687303 C37.6253033,16.0687303 36.4024263,17.2880378 36.4024263,18.7686254 L36.4024263,28.8714586 C36.4024263,30.3520462 37.6253033,31.5713536 39.1102253,31.5713536 C40.5951473,31.5713536 41.8180243,30.3520462 41.8180243,28.8714586 L41.8180243,18.7686254 C41.8180243,17.2880378 40.5951473,16.0687303 39.1102253,16.0687303 Z M28.9778163,33.7486884 C26.2918544,33.7486884 24.0863085,31.5713536 24.0863085,28.8714586 L24.0863085,18.7686254 C24.0863085,16.0687303 26.2700173,13.8913956 28.9778163,13.8913956 C31.6856153,13.8913956 33.8693241,16.0687303 33.8693241,18.7686254 L33.8693241,28.8714586 C33.8693241,31.5713536 31.6856153,33.7486884 28.9778163,33.7486884 Z M28.9778163,16.0687303 C27.4928943,16.0687303 26.2700173,17.2880378 26.2700173,18.7686254 L26.2700173,28.8714586 C26.2700173,30.3520462 27.4928943,31.5713536 28.9778163,31.5713536 C30.4627383,31.5713536 31.6856153,30.3520462 31.6856153,28.8714586 L31.6856153,18.7686254 C31.6856153,17.2880378 30.4627383,16.0687303 28.9778163,16.0687303 Z M18.8454073,33.7486884 C16.1594454,33.7486884 13.9538995,31.5713536 13.9538995,28.8714586 L13.9538995,18.7686254 C13.9538995,16.0687303 16.1376083,13.8913956 18.8454073,13.8913956 C21.5532062,13.8913956 23.7369151,16.0687303 23.7369151,18.7686254 L23.7369151,28.8714586 C23.7369151,31.5713536 21.5532062,33.7486884 18.8454073,33.7486884 Z M18.8454073,16.0687303 C17.3604853,16.0687303 16.1376083,17.2880378 16.1376083,18.7686254 L16.1376083,28.8714586 C16.1376083,30.3520462 17.3604853,31.5713536 18.8454073,31.5713536 C20.3303293,31.5713536 21.5532062,30.3520462 21.5532062,28.8714586 L21.5532062,18.7686254 C21.5532062,17.2880378 20.3303293,16.0687303 18.8454073,16.0687303 Z" id="Shape"></path>
        </g>
    </g>
</svg>