<?xml version="1.0" encoding="UTF-8"?>
<svg width="144px" height="100px" viewBox="0 0 144 100" version="1.1" xmlns="http://www.w3.org/2000/svg" xmlns:xlink="http://www.w3.org/1999/xlink">
    <title>Artboard Copy 4</title>
    <defs>
        <linearGradient x1="0%" y1="50%" x2="100%" y2="50%" id="linearGradient-1">
            <stop stop-color="#FFFFFF" offset="0%"></stop>
            <stop stop-color="#F4FCFF" offset="2%"></stop>
            <stop stop-color="#C0F2FF" offset="12%"></stop>
            <stop stop-color="#9BEBFF" offset="21%"></stop>
            <stop stop-color="#84E6FF" offset="27%"></stop>
            <stop stop-color="#7CE5FF" offset="32%"></stop>
            <stop stop-color="#7CDBFF" offset="47%"></stop>
            <stop stop-color="#7DC3FF" offset="73%"></stop>
            <stop stop-color="#8CCAFF" offset="75%"></stop>
            <stop stop-color="#B5DCFF" offset="80%"></stop>
            <stop stop-color="#D5EBFF" offset="86%"></stop>
            <stop stop-color="#ECF6FF" offset="91%"></stop>
            <stop stop-color="#FAFCFF" offset="96%"></stop>
            <stop stop-color="#FFFFFF" offset="100%"></stop>
        </linearGradient>
        <linearGradient x1="0.00514799227%" y1="49.9878324%" x2="99.9865192%" y2="49.9878324%" id="linearGradient-2">
            <stop stop-color="#FFFFFF" offset="0%"></stop>
            <stop stop-color="#F4FCFF" offset="2%"></stop>
            <stop stop-color="#C0F2FF" offset="12%"></stop>
            <stop stop-color="#9BEBFF" offset="21%"></stop>
            <stop stop-color="#84E6FF" offset="27%"></stop>
            <stop stop-color="#7CE5FF" offset="32%"></stop>
            <stop stop-color="#7CDBFF" offset="47%"></stop>
            <stop stop-color="#7DC3FF" offset="73%"></stop>
            <stop stop-color="#8CCAFF" offset="75%"></stop>
            <stop stop-color="#B5DCFF" offset="80%"></stop>
            <stop stop-color="#D5EBFF" offset="86%"></stop>
            <stop stop-color="#ECF6FF" offset="91%"></stop>
            <stop stop-color="#FAFCFF" offset="96%"></stop>
            <stop stop-color="#FFFFFF" offset="100%"></stop>
        </linearGradient>
        <linearGradient x1="-0.0179586761%" y1="49.9533147%" x2="100%" y2="49.9533147%" id="linearGradient-3">
            <stop stop-color="#FFFFFF" offset="0%"></stop>
            <stop stop-color="#F4FCFF" offset="2%"></stop>
            <stop stop-color="#C0F2FF" offset="12%"></stop>
            <stop stop-color="#9BEBFF" offset="21%"></stop>
            <stop stop-color="#84E6FF" offset="27%"></stop>
            <stop stop-color="#7CE5FF" offset="32%"></stop>
            <stop stop-color="#7CDBFF" offset="47%"></stop>
            <stop stop-color="#7DC3FF" offset="73%"></stop>
            <stop stop-color="#8CCAFF" offset="75%"></stop>
            <stop stop-color="#B5DCFF" offset="80%"></stop>
            <stop stop-color="#D5EBFF" offset="86%"></stop>
            <stop stop-color="#ECF6FF" offset="91%"></stop>
            <stop stop-color="#FAFCFF" offset="96%"></stop>
            <stop stop-color="#FFFFFF" offset="100%"></stop>
        </linearGradient>
        <linearGradient x1="7.73674582e-15%" y1="50.0435161%" x2="100.087108%" y2="50.0435161%" id="linearGradient-4">
            <stop stop-color="#FFFFFF" offset="0%"></stop>
            <stop stop-color="#F4FCFF" offset="2%"></stop>
            <stop stop-color="#C0F2FF" offset="12%"></stop>
            <stop stop-color="#9BEBFF" offset="21%"></stop>
            <stop stop-color="#84E6FF" offset="27%"></stop>
            <stop stop-color="#7CE5FF" offset="32%"></stop>
            <stop stop-color="#7CDBFF" offset="47%"></stop>
            <stop stop-color="#7DC3FF" offset="73%"></stop>
            <stop stop-color="#8CCAFF" offset="75%"></stop>
            <stop stop-color="#B5DCFF" offset="80%"></stop>
            <stop stop-color="#D5EBFF" offset="86%"></stop>
            <stop stop-color="#ECF6FF" offset="91%"></stop>
            <stop stop-color="#FAFCFF" offset="96%"></stop>
            <stop stop-color="#FFFFFF" offset="100%"></stop>
        </linearGradient>
        <linearGradient x1="6.18400988e-14%" y1="50.0435161%" x2="99.9129678%" y2="50.0435161%" id="linearGradient-5">
            <stop stop-color="#FFFFFF" offset="0%"></stop>
            <stop stop-color="#F4FCFF" offset="2%"></stop>
            <stop stop-color="#C0F2FF" offset="12%"></stop>
            <stop stop-color="#9BEBFF" offset="21%"></stop>
            <stop stop-color="#84E6FF" offset="27%"></stop>
            <stop stop-color="#7CE5FF" offset="32%"></stop>
            <stop stop-color="#7CDBFF" offset="47%"></stop>
            <stop stop-color="#7DC3FF" offset="73%"></stop>
            <stop stop-color="#8CCAFF" offset="75%"></stop>
            <stop stop-color="#B5DCFF" offset="80%"></stop>
            <stop stop-color="#D5EBFF" offset="86%"></stop>
            <stop stop-color="#ECF6FF" offset="91%"></stop>
            <stop stop-color="#FAFCFF" offset="96%"></stop>
            <stop stop-color="#FFFFFF" offset="100%"></stop>
        </linearGradient>
    </defs>
    <g id="Artboard-Copy-4" stroke="none" stroke-width="1" fill="none" fill-rule="evenodd">
        <g id="icon_automotive" transform="translate(12.000000, 23.000000)" fill-rule="nonzero">
            <path d="M88.7155803,44 L36.2844197,44 C35.5751133,44 35,43.3283582 35,42.5 C35,41.6716418 35.5751133,41 36.2844197,41 L88.7155803,41 C89.4248867,41 90,41.6716418 90,42.5 C90,43.3283582 89.4248867,44 88.7155803,44 Z M36.2844197,42.4552239 L88.7155803,42.5671642 C88.7155803,42.5671642 88.7539212,42.5447761 88.7539212,42.5223881 L36.2844197,42.4776119 L36.2844197,42.4552239 Z" id="Shape" fill="url(#linearGradient-1)"></path>
            <path d="M7.95488814,44.9806321 L7.95488814,44.9806321 C7.03551921,44.9806321 6.11615027,44.9225285 5.23508838,44.8063212 C3.39635052,44.3995958 1.0021606,43.6829842 0.63824373,41.8043 C0.408401498,39.7319369 0.00617759072,34.1539878 0.00617759072,31.558692 C-0.0512829674,30.280412 0.293480382,29.0021319 0.983007079,27.9175307 C3.30058293,23.7340688 10.827916,14.0694972 30.6518086,14.7280051 L50.322473,1.38353647 C51.4525307,0.686292823 52.7166629,0.279567363 54.0191023,0.202095847 L92.1729129,0.00841705712 C92.8815931,-0.0303187009 93.5902733,0.0665206942 94.2798,0.260199484 C102.975498,2.66181648 117.149102,10.6801184 115.521053,25.5546495 L116.900106,26.3099968 C118.183392,26.8910331 119.160222,28.0918416 119.485832,29.5250647 C120.290279,32.5658217 120.156205,35.7421538 119.045301,38.7248072 C117.896089,41.9979788 113.49078,44.6707461 113.452473,44.6901139 C113.203477,44.845057 112.858714,44.9031606 112.51395,44.8256891 C112.188341,44.7482176 111.901038,44.5351709 111.709503,44.2446527 C111.326432,43.6442485 111.517967,42.8307976 112.111727,42.4628078 C112.150034,42.44344 115.789202,40.0999266 116.59365,37.8338848 C117.513019,35.3547963 117.62794,32.7013968 116.957567,30.1448368 C116.804339,29.466961 116.363808,28.9052925 115.750895,28.6535101 L113.509933,27.4139659 C113.031095,27.1621834 112.762946,26.6198828 112.858714,26.0775822 C113.854697,19.3956639 111.47966,13.6434039 105.771912,9.0144808 C102.132743,6.16740258 98.0338898,4.07567165 93.6094268,2.77802376 C93.1880494,2.66181648 92.7092114,2.60371284 92.2686805,2.62308072 L54.1340234,2.79739163 C53.2912685,2.85549527 52.4485137,3.12664558 51.7015264,3.59147467 L31.7244057,17.1102542 C31.4754099,17.2651973 31.2264142,17.3426688 30.9391114,17.3233009 C12.1686624,16.5873215 5.27339542,25.3997064 3.18566181,29.2345465 C2.74513086,29.9317901 2.53444215,30.7065053 2.57274919,31.5005883 C2.57274919,33.960309 2.93666606,39.2477399 3.12820125,41.320103 C3.26227589,41.4556781 3.81772795,41.8430357 5.63731229,42.2303933 C7.20790088,42.4047042 8.85510355,42.4047042 10.4831527,42.2303933 C11.1918329,42.1529218 11.8238991,42.6564866 11.9196666,43.3730982 C11.9579737,43.72172 11.8622061,44.0509739 11.6515174,44.3414921 C11.4408287,44.6126424 11.1343724,44.7869533 10.789609,44.8256891 C9.87024007,44.9418964 8.93171762,45 7.99319517,45 L7.99319517,45 L7.95488814,44.9806321 Z M28.7173031,15.9288136 C11.0002977,15.9288136 4.18164482,24.663727 2.05560416,28.5373028 C1.48099858,29.4475932 1.21284931,30.4740907 1.25115635,31.5199562 C1.25115635,34.115252 1.63422674,39.6157296 1.84491545,41.6299891 C2.0939112,42.8501654 4.60302224,43.392466 5.42662358,43.5861448 C6.21191787,43.6829842 7.09297976,43.72172 7.95488814,43.7410879 C8.83595003,43.7410879 9.71701192,43.6829842 10.5980738,43.566777 C8.85510355,43.6636163 7.11213328,43.6636163 5.38831654,43.4699376 C2.45782807,42.8501654 1.84491545,42.0560824 1.84491545,41.5137818 C1.65338026,39.5963618 1.27030987,34.1539878 1.27030987,31.5393241 C1.21284931,30.5128265 1.5001521,29.4863289 2.05560416,28.5954065 C4.23910537,24.6056234 11.4791357,15.2703057 30.9391114,16.0837566 L50.9928462,2.54560921 C51.9313686,1.96457284 52.9848122,1.61595102 54.0574093,1.55784738 L92.2112199,1.38353647 C92.766672,1.38353647 93.3412776,1.4416401 93.8967296,1.57721526 C98.4935743,2.91359891 102.726502,5.08280136 106.499745,8.04608685 C112.590565,12.984896 115.118829,19.1051458 114.046232,26.271261 L116.26804,27.5301731 C117.187409,27.9175307 117.915243,28.8084531 118.145085,29.8543186 C118.892072,32.6239253 118.757998,35.548475 117.742861,38.2599781 C116.785185,40.9133775 112.916174,43.4118339 112.743793,43.5280412 L112.743793,43.5280412 C112.916174,43.5280412 116.861799,41.0295848 117.838629,38.2987139 C118.853765,35.5678429 118.98784,32.6432932 118.240853,29.8349507 C118.011011,28.7697174 117.283177,27.878795 116.325501,27.4527016 L114.161153,26.271261 L114.218614,25.8451677 C116.057352,11.5516729 102.324278,3.80452134 93.9158831,1.48037586 C93.3412776,1.32543283 92.766672,1.24796131 92.1729129,1.26732919 L54.0191023,1.46100798 C52.9656587,1.51911162 51.8930616,1.86773344 50.9545392,2.44876981 L30.9774184,15.9869172 L30.7858832,15.9869172 C30.077203,15.9481815 29.3685228,15.9481815 28.6981496,15.9481815 L28.7173031,15.9288136 Z" id="Shape" fill="url(#linearGradient-2)"></path>
            <path d="M38.0397125,22 L38.0397125,22 C37.6567021,22 37.2736916,21.8039216 37.0438853,21.4901961 L32.2945556,15.4901961 C32.0838999,15.2156863 31.9689968,14.8823529 32.0072978,14.5294118 C32.0455988,14.1764706 32.2179535,13.8627451 32.4860609,13.6470588 C32.7541682,13.4313725 33.0988776,13.3137255 33.4244365,13.372549 C33.7691459,13.4117647 34.0755543,13.5882353 34.28621,13.8627451 L38.6525293,19.3921569 L95.4338299,19 L95.4338299,2.31372549 C95.4338299,1.58823529 96.0083456,1 96.716915,1 C97.4254843,1 97.9808495,1.58823529 98,2.29411765 L98,20.2941176 C98,21.0196078 97.4254843,21.5882353 96.7360655,21.6078431 L38.0588631,22 L38.0397125,22 Z M33.3095334,14.627451 L38.0397125,20.7254902 L96.6977644,20.3333333 L96.755216,2.29411765 L96.6594634,20.2352941 L38.0397125,20.627451 L33.2903828,14.6078431 L33.3095334,14.627451 Z" id="Shape" fill="url(#linearGradient-3)"></path>
            <path d="M23,52 C16.9250871,52 12,47.0600522 12,41.0095735 C12,34.9590949 16.9442509,30 23,30 C29.0557491,30 34,34.9399478 34,41.0095735 C34,47.0791993 29.0557491,52 23,52 L23,52 Z M23,31.2445605 C17.6149826,31.2445605 13.2264808,35.6292428 13.2264808,41.0095735 C13.2264808,46.3899043 17.6149826,50.7745866 23,50.7745866 C28.3850174,50.7745866 32.7735192,46.3899043 32.7735192,41.0095735 C32.7735192,35.6292428 28.3850174,31.2445605 23,31.2445605 Z M23,50.6979983 C17.6533101,50.6979983 13.3222997,46.3516101 13.3222997,41.0287206 C13.3222997,35.7058312 17.6724739,31.359443 23,31.359443 L23,31.359443 C25.587108,31.359443 28.0017422,32.3742385 29.8414634,34.1932115 C31.6620209,36.0121845 32.6777003,38.4438642 32.6777003,41.0287206 C32.6777003,46.3707572 28.3275261,50.7171453 23,50.7171453 L23,50.6979983 Z M23,32.5848564 C18.3432056,32.5848564 14.5487805,36.3759791 14.5487805,41.0287206 C14.5487805,45.6814621 18.3432056,49.4534378 23,49.4534378 C27.6567944,49.4534378 31.4512195,45.6623151 31.4512195,41.0287206 C31.4512195,38.7693647 30.5696864,36.6440383 28.9790941,35.0548303 C27.3885017,33.4656223 25.261324,32.5848564 23.0191638,32.5848564 L23.0191638,32.5848564 L23,32.5848564 Z" id="Shape" fill="url(#linearGradient-4)"></path>
            <path d="M100.990426,52 C94.9208007,52 90,47.0600522 90,41.0095735 C90,34.9590949 94.9399478,30 100.990426,30 C107.040905,30 112,34.9399478 112,41.0095735 C112,47.0791993 107.060052,52 100.990426,52 L100.990426,52 Z M100.990426,31.2445605 C95.6100957,31.2445605 91.2254134,35.6292428 91.2254134,41.0095735 C91.2254134,46.3899043 95.6100957,50.7745866 100.990426,50.7745866 C106.370757,50.7745866 110.75544,46.3899043 110.75544,41.0095735 C110.75544,35.6292428 106.370757,31.2445605 100.990426,31.2445605 Z M100.990426,50.6979983 C95.6483899,50.6979983 91.3211488,46.3516101 91.3211488,41.0287206 C91.3211488,35.7058312 95.667537,31.359443 100.990426,31.359443 C106.313316,31.359443 110.659704,35.6866841 110.659704,41.0095735 C110.659704,46.3516101 106.313316,50.6979983 100.990426,50.6979983 L100.990426,50.6979983 Z M100.990426,32.5848564 C96.3376849,32.5848564 92.5657093,36.3759791 92.5657093,41.0287206 C92.5657093,45.6814621 96.356832,49.4534378 100.990426,49.4534378 C105.624021,49.4534378 109.434291,45.6623151 109.434291,41.0287206 C109.434291,36.3759791 105.643168,32.5848564 100.990426,32.5848564 L100.990426,32.5848564 Z" id="Shape" fill="url(#linearGradient-5)"></path>
        </g>
    </g>
</svg>